<svg xmlns="http://www.w3.org/2000/svg" xmlns:xlink="http://www.w3.org/1999/xlink" width="156" height="204" viewBox="0 0 156 204">
    <defs>
        <path id="a" d="M0 144.742V.406h155.787v144.336z"/>
    </defs>
    <g fill="none" fill-rule="evenodd">
        <g>
            <mask id="b" fill="#fff">
                <use xlink:href="#a"/>
            </mask>
            <path fill="#FFF" d="M107.523 86.342c-3.97.034-7.21-3.202-7.189-7.18.02-3.97 3.312-7.176 7.274-7.087 3.851.087 7.08 3.266 7.144 7.033.065 3.83-3.304 7.201-7.229 7.234m1.678 17.036c-3.44 15.265-16.543 26.39-31.317 26.252-14.874-.14-27.81-11.386-31.015-26.672-1.103-5.258.629-7.543 5.435-7.543 8.757-.003 17.515 0 26.272 0 8.35-.002 16.701.018 25.05-.01 5.189-.016 6.819 2.458 5.575 7.973M41.387 79.07c.058-3.962 3.394-7.13 7.367-6.994 3.841.131 7.05 3.374 7.052 7.127.003 3.848-3.41 7.176-7.325 7.144a7.143 7.143 0 0 1-7.094-7.277m102.357-2.052c-1.577 0-3.079.31-4.459.858-1.494-16.026-9.204-30.25-20.712-40.28l8.887-18.435c3.143-6.52.376-14.34-6.18-17.466-6.556-3.125-14.42-.375-17.563 6.146l-8.24 17.094a61.781 61.781 0 0 0-17.407-2.5c-32.07 0-58.392 24.418-61.225 55.578a12.054 12.054 0 0 0-4.802-.995C5.392 77.018 0 82.38 0 88.995c0 6.614 5.392 11.976 12.043 11.976 2.406 0 4.643-.71 6.524-1.919 6.888 26.286 30.915 45.69 59.503 45.69 28.521 0 52.5-19.315 59.452-45.508a12.016 12.016 0 0 0 6.222 1.737c6.651 0 12.043-5.362 12.043-11.976 0-6.615-5.392-11.977-12.043-11.977" mask="url(#b)"/>
        </g>
        <path fill="#FFF" d="M68.302 197.75c0 .415-.091.706-.276.87-.184.164-.54.244-1.06.244H45.034c-.521 0-.87-.08-1.055-.243-.184-.165-.276-.456-.276-.87v-2.233c0-.506.092-.864.276-1.072.185-.209.534-.313 1.055-.313h21.932c.52 0 .876.104 1.06.313.185.208.276.566.276 1.072v2.233zm4.594-8.015c-.73-.491-1.853-.735-3.354-.735H42.458c-1.502 0-2.618.244-3.354.735-.736.492-1.104 1.45-1.104 2.88v7.768c0 1.43.368 2.388 1.104 2.88.736.49 1.852.737 3.354.737h27.084c1.501 0 2.624-.247 3.354-.738.736-.491 1.104-1.45 1.104-2.88v-7.767c0-1.43-.368-2.388-1.104-2.88zM42.997 171.619a6.546 6.546 0 0 1 1.192-2.118 5.674 5.674 0 0 1 1.84-1.426c.719-.352 1.527-.53 2.426-.53.899 0 1.713.178 2.45.53.731.353 1.36.829 1.882 1.426.527.598.928 1.306 1.216 2.118.281.813.425 1.678.425 2.598 0 .921-.144 1.789-.425 2.602a6.367 6.367 0 0 1-1.216 2.116 5.504 5.504 0 0 1-1.882 1.402c-.737.34-1.551.507-2.45.507-.899 0-1.707-.166-2.426-.507a5.343 5.343 0 0 1-1.84-1.402 6.528 6.528 0 0 1-1.192-2.116 7.752 7.752 0 0 1-.425-2.602c0-.92.138-1.785.425-2.598m.989 13.506c1.39.583 2.881.875 4.47.875 1.587 0 3.085-.292 4.492-.875a11.52 11.52 0 0 0 3.679-2.415c1.049-1.029 1.875-2.262 2.474-3.705.599-1.442.899-3.038.899-4.788 0-1.747-.3-3.343-.899-4.785-.599-1.442-1.425-2.677-2.474-3.705-.18-.18-.378-.346-.575-.514l1.683-3.6c.587-1.256.072-2.761-1.156-3.365-1.228-.601-2.696-.072-3.283 1.185l-1.612 3.449a11.875 11.875 0 0 0-3.229-.445c-1.588 0-3.08.292-4.47.875a11.277 11.277 0 0 0-3.636 2.415c-1.036 1.028-1.851 2.263-2.45 3.705-.599 1.442-.899 3.038-.899 4.785 0 1.75.3 3.346.899 4.788.599 1.443 1.414 2.676 2.45 3.705a11.266 11.266 0 0 0 3.637 2.415M73.106 162.594a3.472 3.472 0 0 0-1.94-.594c-.69 0-1.32.205-1.89.617-.57.412-.852.998-.852 1.76v6.857h-5.041c-.78 0-1.375.244-1.777.731-.408.488-.606 1.081-.606 1.784 0 .7.198 1.34.606 1.919.402.58.997.869 1.777.869h5.041v7.085c0 .762.282 1.35.853 1.759.57.411 1.2.619 1.89.619s1.332-.198 1.939-.594c.594-.397.894-.991.894-1.784v-19.244c0-.793-.3-1.387-.894-1.784M104.316 174.597h7.146v16.063c0 .75.274 1.329.828 1.734a3.064 3.064 0 0 0 1.852.606c.715 0 1.37-.195 1.965-.585.595-.39.893-.976.893-1.755v-26.321c0-.78-.298-1.364-.893-1.754a3.507 3.507 0 0 0-1.965-.585c-.684 0-1.304.202-1.852.607-.554.405-.828.983-.828 1.732v5.039h-7.146c-.744 0-1.315.248-1.714.743-.406.495-.602 1.087-.602 1.778 0 .69.196 1.313.602 1.866.399.555.97.832 1.714.832M118.39 199.713c-.41-.566-1.008-.849-1.793-.849H93.732c-1.872 0-3.194-.378-3.962-1.137-.767-.76-1.153-1.942-1.153-3.55v-2.857c0-.742-.278-1.317-.84-1.718a3.127 3.127 0 0 0-1.878-.602c-.724 0-1.388.193-1.992.581-.605.384-.907.967-.907 1.739v2.813c0 3.126.84 5.55 2.512 7.277 1.68 1.727 4.162 2.59 7.453 2.59h23.632c.785 0 1.382-.238 1.793-.715.405-.476.61-1.056.61-1.741 0-.656-.205-1.265-.61-1.831M89.465 185.383c1.204-.409 2.232-1.01 3.083-1.802 1.704 1.613 4.089 2.419 7.161 2.419h3.875c.792 0 1.394-.243 1.8-.73.415-.487.616-1.08.616-1.78 0-.698-.201-1.33-.615-1.893-.407-.564-1.01-.843-1.8-.843h-3.103c-1.886 0-3.212-.396-3.99-1.187-.774-.794-1.163-2.009-1.163-3.653v-10.54c0-.823-.292-1.422-.87-1.803a3.393 3.393 0 0 0-1.91-.571c-.7 0-1.357.206-1.965.616-.608.411-.913.997-.913 1.758v10.586c0 1.644-.383 2.852-1.162 3.628-.772.776-2.105 1.166-3.99 1.166h-3.103c-.791 0-1.387.28-1.8.843a3.152 3.152 0 0 0-.616 1.892c0 .7.207 1.294.615 1.781.414.487 1.01.73 1.8.73h3.882c1.576 0 2.97-.207 4.168-.617"/>
    </g>
</svg>
